<svg width="12" height="16" viewBox="0 0 12 16" fill="none" xmlns="http://www.w3.org/2000/svg">
<path d="M0 15.75C0 14.66 0.264229 13.65 0.792687 12.72C1.30193 11.82 1.98892 11.105 2.85367 10.575C3.74725 10.025 4.71769 9.75 5.765 9.75C6.81231 9.75 7.78275 10.025 8.67632 10.575C9.54107 11.105 10.2281 11.82 10.7373 12.72C11.2658 13.65 11.53 14.66 11.53 15.75H10.0887C10.0887 14.94 9.89178 14.185 9.49784 13.485C9.1135 12.805 8.59465 12.265 7.94129 11.865C7.2687 11.455 6.54327 11.25 5.765 11.25C4.98672 11.25 4.2613 11.455 3.58871 11.865C2.93535 12.265 2.4165 12.805 2.03216 13.485C1.63822 14.185 1.44125 14.94 1.44125 15.75H0ZM5.765 9C4.97712 9 4.25169 8.795 3.58871 8.385C2.93535 7.985 2.4165 7.445 2.03216 6.765C1.63822 6.075 1.44125 5.32 1.44125 4.5C1.44125 3.68 1.63822 2.925 2.03216 2.235C2.4165 1.555 2.93535 1.015 3.58871 0.615001C4.25169 0.205001 4.97712 0 5.765 0C6.55288 0 7.27831 0.205001 7.94129 0.615001C8.59465 1.015 9.1135 1.555 9.49784 2.235C9.89178 2.925 10.0887 3.68 10.0887 4.5C10.0887 5.32 9.89178 6.075 9.49784 6.765C9.1135 7.445 8.59465 7.985 7.94129 8.385C7.27831 8.795 6.55288 9 5.765 9ZM5.765 7.5C6.28385 7.5 6.76427 7.365 7.20625 7.095C7.64823 6.825 7.99894 6.46 8.25836 6C8.51779 5.54 8.6475 5.04 8.6475 4.5C8.6475 3.96 8.51779 3.46 8.25836 3C7.99894 2.54 7.64823 2.175 7.20625 1.905C6.76427 1.635 6.28385 1.5 5.765 1.5C5.24615 1.5 4.76573 1.635 4.32375 1.905C3.88177 2.175 3.53106 2.54 3.27164 3C3.01221 3.46 2.8825 3.96 2.8825 4.5C2.8825 5.04 3.01221 5.54 3.27164 6C3.53106 6.46 3.88177 6.825 4.32375 7.095C4.76573 7.365 5.24615 7.5 5.765 7.5Z" fill="#6B7280"/>
</svg>
