<svg width="48" height="48" viewBox="0 0 48 48" fill="none" xmlns="http://www.w3.org/2000/svg">
<path d="M0 12C0 5.37258 5.37258 0 12 0H36C42.6274 0 48 5.37258 48 12V36C48 42.6274 42.6274 48 36 48H12C5.37258 48 0 42.6274 0 36V12Z" fill="#DBEAFE"/>
<path d="M31.7619 22C31.8473 22.3333 31.8073 22.6472 31.6419 22.9417C31.4766 23.2361 31.2339 23.4278 30.9139 23.5167L18.3699 27.0167C18.1993 27.0722 18.0286 27.0611 17.8579 26.9833C17.6873 26.9055 17.5593 26.7833 17.4739 26.6167L15.3779 22.6833L16.5299 22.3667L18.4979 24.4L22.5779 23.2667L18.9779 17.3667L20.5139 16.9333L26.0819 22.2833L30.2899 21.1167C30.6099 21.0167 30.9139 21.0555 31.2019 21.2333C31.4899 21.4111 31.6766 21.6667 31.7619 22ZM17.3939 29.4H30.1939V31.0667H17.3939V29.4Z" fill="#2563EB"/>
</svg>
