<svg width="48" height="48" viewBox="0 0 48 48" fill="none" xmlns="http://www.w3.org/2000/svg">
<path d="M0 12C0 5.37258 5.37258 0 12 0H36C42.6274 0 48 5.37258 48 12V36C48 42.6274 42.6274 48 36 48H12C5.37258 48 0 42.6274 0 36V12Z" fill="#FEF9C3"/>
<path d="M29.49 26.5833C29.8954 25.5833 30.0527 24.5416 29.962 23.4583C29.8714 22.375 29.554 21.3778 29.01 20.4666C28.4554 19.5333 27.714 18.7889 26.786 18.2333C25.7834 17.6222 24.706 17.3222 23.554 17.3333C22.434 17.3444 21.3887 17.6389 20.418 18.2166L19.618 16.7666C20.418 16.2889 21.274 15.9639 22.186 15.7916C23.098 15.6194 24.0074 15.6166 24.914 15.7833C25.8634 15.95 26.754 16.2833 27.586 16.7833C28.7594 17.4944 29.698 18.45 30.402 19.65C31.0847 20.8055 31.474 22.0666 31.57 23.4333C31.666 24.8222 31.4367 26.15 30.882 27.4166L31.954 28.0666L28.626 29.9166L28.482 25.9833L29.49 26.5833ZM17.682 21.4166C17.2767 22.4166 17.1194 23.4583 17.21 24.5416C17.3007 25.625 17.618 26.6222 18.162 27.5333C18.7167 28.4666 19.458 29.2111 20.386 29.7666C21.3887 30.3778 22.466 30.6778 23.618 30.6666C24.738 30.6555 25.7834 30.3611 26.754 29.7833L27.554 31.2333C26.754 31.7111 25.898 32.0361 24.986 32.2083C24.074 32.3805 23.1647 32.3833 22.258 32.2166C21.3087 32.05 20.418 31.7166 19.586 31.2166C18.4127 30.5055 17.474 29.55 16.77 28.35C16.0874 27.1944 15.698 25.9333 15.602 24.5666C15.506 23.1778 15.7354 21.85 16.29 20.5833L15.218 19.9333L18.546 18.0833L18.69 22.0166L17.682 21.4166ZM20.786 25.6666H25.186C25.2927 25.6666 25.386 25.625 25.466 25.5416C25.546 25.4583 25.586 25.3611 25.586 25.25C25.586 25.1389 25.546 25.0416 25.466 24.9583C25.386 24.875 25.2927 24.8333 25.186 24.8333H21.986C21.6234 24.8333 21.29 24.7389 20.986 24.55C20.682 24.3611 20.4394 24.1083 20.258 23.7916C20.0767 23.475 19.986 23.1278 19.986 22.75C19.986 22.3722 20.0767 22.025 20.258 21.7083C20.4394 21.3916 20.682 21.1389 20.986 20.95C21.29 20.7611 21.6234 20.6666 21.986 20.6666H22.786V19.8333H24.386V20.6666H26.386V22.3333H21.986C21.8794 22.3333 21.786 22.375 21.706 22.4583C21.626 22.5416 21.586 22.6389 21.586 22.75C21.586 22.8611 21.626 22.9583 21.706 23.0416C21.786 23.125 21.8794 23.1666 21.986 23.1666H25.186C25.5487 23.1666 25.882 23.2611 26.186 23.45C26.49 23.6389 26.7327 23.8916 26.914 24.2083C27.0954 24.525 27.186 24.8722 27.186 25.25C27.186 25.6278 27.0954 25.975 26.914 26.2916C26.7327 26.6083 26.49 26.8611 26.186 27.05C25.882 27.2389 25.5487 27.3333 25.186 27.3333H24.386V28.1666H22.786V27.3333H20.786V25.6666Z" fill="#CA8A04"/>
</svg>
