<svg width="48" height="48" viewBox="0 0 48 48" fill="none" xmlns="http://www.w3.org/2000/svg">
<path d="M0 12C0 5.37258 5.37258 0 12 0H36C42.6274 0 48 5.37258 48 12V36C48 42.6274 42.6274 48 36 48H12C5.37258 48 0 42.6274 0 36V12Z" fill="#DCFCE7"/>
<path d="M31.5859 23.1666V30.6666H29.9859V28.1666H17.1859V30.6666H15.5859V17.3333H17.1859V25.6666H23.5859V19.8333H28.3859C28.9619 19.8333 29.4953 19.9833 29.9859 20.2833C30.4766 20.5833 30.8659 20.9888 31.1539 21.5C31.4419 22.0111 31.5859 22.5666 31.5859 23.1666ZM29.9859 25.6666V23.1666C29.9859 22.8666 29.9139 22.5888 29.7699 22.3333C29.6259 22.0777 29.4313 21.875 29.1859 21.725C28.9406 21.575 28.6739 21.5 28.3859 21.5H25.1859V25.6666H29.9859ZM20.3859 23.1666C20.6099 23.1666 20.7993 23.0861 20.9539 22.925C21.1086 22.7638 21.1859 22.5666 21.1859 22.3333C21.1859 22.1 21.1086 21.9027 20.9539 21.7416C20.7993 21.5805 20.6099 21.5 20.3859 21.5C20.1619 21.5 19.9726 21.5805 19.8179 21.7416C19.6633 21.9027 19.5859 22.1 19.5859 22.3333C19.5859 22.5666 19.6633 22.7638 19.8179 22.925C19.9726 23.0861 20.1619 23.1666 20.3859 23.1666ZM20.3859 24.8333C19.9486 24.8333 19.5459 24.7222 19.1779 24.5C18.8099 24.2777 18.5193 23.975 18.3059 23.5916C18.0926 23.2083 17.9859 22.7888 17.9859 22.3333C17.9859 21.8777 18.0926 21.4583 18.3059 21.075C18.5193 20.6916 18.8099 20.3888 19.1779 20.1666C19.5459 19.9444 19.9486 19.8333 20.3859 19.8333C20.8233 19.8333 21.2259 19.9444 21.5939 20.1666C21.9619 20.3888 22.2526 20.6916 22.4659 21.075C22.6793 21.4583 22.7859 21.8777 22.7859 22.3333C22.7859 22.7888 22.6793 23.2083 22.4659 23.5916C22.2526 23.975 21.9619 24.2777 21.5939 24.5C21.2259 24.7222 20.8233 24.8333 20.3859 24.8333Z" fill="#16A34A"/>
</svg>
