<svg width="80" height="80" viewBox="0 0 80 80" fill="none" xmlns="http://www.w3.org/2000/svg">
<path d="M0 40C0 17.9086 17.9086 0 40 0C62.0914 0 80 17.9086 80 40C80 62.0914 62.0914 80 40 80C17.9086 80 0 62.0914 0 40Z" fill="white" fill-opacity="0.2"/>
<path d="M43.1049 37.325C42.5766 36.7916 42.2644 36.1416 42.1684 35.375L41.6881 31.525L38.3984 33.375C37.7581 33.7416 37.0697 33.8583 36.3333 33.725L32.6594 33L33.3558 36.825C33.4839 37.5916 33.3718 38.3083 33.0196 38.975L31.2427 42.4L34.9406 42.9C35.677 43 36.3013 43.325 36.8136 43.875L39.3829 46.7L40.9678 43.2C41.2879 42.5 41.7842 41.9833 42.4565 41.65L45.8183 40L43.1049 37.325ZM43.1529 44.275L40.4875 50.075C40.4075 50.275 40.2714 50.4083 40.0793 50.475C39.8872 50.5416 39.7031 50.5333 39.527 50.45C39.447 50.4 39.3749 50.3416 39.3109 50.275L35.0607 45.6C34.9486 45.4666 34.8045 45.3916 34.6285 45.375L28.5053 44.55C28.3132 44.5166 28.1531 44.4166 28.025 44.25C27.897 44.0833 27.8489 43.9 27.8809 43.7C27.897 43.6 27.921 43.5166 27.953 43.45L30.9065 37.775C31.0026 37.625 31.0346 37.4666 31.0026 37.3L29.85 30.95C29.818 30.75 29.858 30.5666 29.97 30.4C30.0821 30.2333 30.2342 30.125 30.4263 30.075C30.5223 30.0583 30.6104 30.0583 30.6904 30.075L36.7896 31.275C36.9497 31.3083 37.1017 31.275 37.2458 31.175L42.6967 28.1C42.8567 28 43.0328 27.9791 43.2249 28.0375C43.417 28.0958 43.5611 28.2166 43.6572 28.4C43.7052 28.4833 43.7372 28.575 43.7532 28.675L44.5456 35.05C44.5616 35.2333 44.6337 35.3833 44.7617 35.5L49.2521 39.925C49.3961 40.075 49.4722 40.25 49.4802 40.45C49.4882 40.65 49.4202 40.8333 49.2761 41C49.212 41.0666 49.14 41.1166 49.06 41.15L43.4891 43.925C43.329 43.9916 43.2169 44.1083 43.1529 44.275ZM44.0894 46.675L45.7943 44.9L50.8849 50.225L49.204 51.975L44.0894 46.675Z" fill="white"/>
</svg>
