<svg width="48" height="48" viewBox="0 0 48 48" fill="none" xmlns="http://www.w3.org/2000/svg">
<path d="M0 12C0 5.37258 5.37258 0 12 0H36C42.6274 0 48 5.37258 48 12V36C48 42.6274 42.6274 48 36 48H12C5.37258 48 0 42.6274 0 36V12Z" fill="#FEE2E2"/>
<path d="M17.1858 30.6667V25.6667C17.1858 24.4556 17.4792 23.3334 18.0658 22.3C18.6312 21.3 19.3938 20.5056 20.3538 19.9167C21.3458 19.3056 22.4232 19 23.5858 19C24.7485 19 25.8258 19.3056 26.8178 19.9167C27.7778 20.5056 28.5405 21.3 29.1058 22.3C29.6925 23.3334 29.9858 24.4556 29.9858 25.6667V30.6667H30.7858V32.3334H16.3858V30.6667H17.1858ZM18.7858 30.6667H28.3858V25.6667C28.3858 24.7667 28.1672 23.9278 27.7298 23.15C27.3032 22.3945 26.7272 21.7945 26.0018 21.35C25.2552 20.8945 24.4498 20.6667 23.5858 20.6667C22.7218 20.6667 21.9165 20.8945 21.1698 21.35C20.4445 21.7945 19.8685 22.3945 19.4418 23.15C19.0045 23.9278 18.7858 24.7667 18.7858 25.6667V30.6667ZM22.7858 15.6667H24.3858V18.1667H22.7858V15.6667ZM29.8098 18L30.9458 19.1834L29.2498 20.95L28.1138 19.7667L29.8098 18ZM16.2258 19.1834L17.3618 18L19.0578 19.7667L17.9218 20.95L16.2258 19.1834ZM19.5858 25.6667C19.5858 24.9112 19.7645 24.2139 20.1218 23.575C20.4792 22.9362 20.9645 22.4306 21.5778 22.0584C22.1912 21.6862 22.8605 21.5 23.5858 21.5V23.1667C23.1485 23.1667 22.7458 23.2778 22.3778 23.5C22.0098 23.7223 21.7192 24.025 21.5058 24.4084C21.2925 24.7917 21.1858 25.2112 21.1858 25.6667H19.5858Z" fill="#DC2626"/>
</svg>
