<svg width="15" height="14" viewBox="0 0 15 14" fill="none" xmlns="http://www.w3.org/2000/svg">
<path d="M5.63529 1.5L4.19404 3H1.44125V12H12.9712V3H10.2185L8.77721 1.5H5.63529ZM5.04437 3.01749e-07H9.36812L10.8094 1.5H13.6919C13.8936 1.5 14.0642 1.5725 14.2035 1.7175C14.3428 1.8625 14.4125 2.04 14.4125 2.25V12.75C14.4125 12.96 14.3428 13.1375 14.2035 13.2825C14.0642 13.4275 13.8936 13.5 13.6919 13.5H0.720625C0.51885 13.5 0.348302 13.4275 0.208981 13.2825C0.0696604 13.1375 0 12.96 0 12.75V2.25C0 2.04 0.0696604 1.8625 0.208981 1.7175C0.348302 1.5725 0.51885 1.5 0.720625 1.5H3.60312L5.04437 3.01749e-07ZM7.20625 11.25C6.48562 11.25 5.82265 11.065 5.21732 10.695C4.612 10.325 4.13158 9.825 3.77607 9.195C3.42057 8.565 3.24281 7.875 3.24281 7.125C3.24281 6.375 3.42057 5.685 3.77607 5.055C4.13158 4.425 4.612 3.925 5.21732 3.555C5.82265 3.185 6.48562 3 7.20625 3C7.92687 3 8.58985 3.185 9.19517 3.555C9.8005 3.925 10.2809 4.425 10.6364 5.055C10.9919 5.685 11.1697 6.375 11.1697 7.125C11.1697 7.875 10.9919 8.565 10.6364 9.195C10.2809 9.825 9.8005 10.325 9.19517 10.695C8.58985 11.065 7.92687 11.25 7.20625 11.25ZM7.20625 9.75C7.66745 9.75 8.09022 9.6325 8.47455 9.3975C8.85888 9.1625 9.16395 8.845 9.38974 8.445C9.61554 8.045 9.72844 7.605 9.72844 7.125C9.72844 6.645 9.61554 6.205 9.38974 5.805C9.16395 5.405 8.85888 5.0875 8.47455 4.8525C8.09022 4.6175 7.66745 4.5 7.20625 4.5C6.74505 4.5 6.32228 4.6175 5.93795 4.8525C5.55362 5.0875 5.24855 5.405 5.02276 5.805C4.79696 6.205 4.68406 6.645 4.68406 7.125C4.68406 7.605 4.79696 8.045 5.02276 8.445C5.24855 8.845 5.55362 9.1625 5.93795 9.3975C6.32228 9.6325 6.74505 9.75 7.20625 9.75Z" fill="#6B7280"/>
</svg>
