<svg width="13" height="15" viewBox="0 0 13 15" fill="none" xmlns="http://www.w3.org/2000/svg">
<path d="M12.9712 13.29C12.9712 13.5 12.9016 13.6775 12.7623 13.8225C12.6229 13.9675 12.4524 14.04 12.2506 14.04H0.720625C0.51885 14.04 0.348302 13.9675 0.208981 13.8225C0.0696604 13.6775 0 13.5 0 13.29V5.415C0 5.165 0.0912792 4.965 0.273837 4.815L6.03884 0.150001C6.17335 0.0500012 6.32228 1.22935e-06 6.48562 1.22935e-06C6.64897 1.22935e-06 6.7979 0.0500012 6.93241 0.150001L12.6974 4.815C12.88 4.965 12.9712 5.165 12.9712 5.415V13.29ZM11.53 12.54V5.775L6.48562 1.695L1.44125 5.775V12.54H11.53Z" fill="#50B4BE"/>
</svg>
