<svg width="13" height="17" viewBox="0 0 13 17" fill="none" xmlns="http://www.w3.org/2000/svg">
<path d="M6.48562 14.1825L10.0455 10.4625C10.6989 9.7925 11.1409 9.0025 11.3715 8.0925C11.5925 7.2025 11.5925 6.3125 11.3715 5.4225C11.1409 4.5125 10.7013 3.72 10.0527 3.045C9.40416 2.37 8.6427 1.9125 7.76834 1.6725C6.9132 1.4425 6.05805 1.4425 5.20291 1.6725C4.32855 1.9125 3.56709 2.37 2.91853 3.045C2.26997 3.72 1.83039 4.5125 1.59979 5.4225C1.3788 6.3125 1.3788 7.2025 1.59979 8.0925C1.83039 9.0025 2.27237 9.7925 2.92574 10.4625L6.48562 14.1825ZM6.48562 16.2975L1.90245 11.5275C1.06652 10.6675 0.504437 9.6475 0.216187 8.4675C-0.0720625 7.3275 -0.0720625 6.1875 0.216187 5.0475C0.504437 3.8675 1.06412 2.845 1.89524 1.98C2.72636 1.115 3.70882 0.5275 4.8426 0.2175C5.93795 -0.0725 7.0333 -0.0725 8.12865 0.2175C9.26243 0.5275 10.2449 1.115 11.076 1.98C11.9071 2.845 12.4668 3.8675 12.7551 5.0475C13.0433 6.1875 13.0433 7.3275 12.7551 8.4675C12.4668 9.6475 11.9047 10.6675 11.0688 11.5275L6.48562 16.2975ZM6.48562 8.2575C6.74505 8.2575 6.98526 8.19 7.20625 8.055C7.42724 7.92 7.60259 7.7375 7.73231 7.5075C7.86202 7.2775 7.92687 7.0275 7.92687 6.7575C7.92687 6.4875 7.86202 6.2375 7.73231 6.0075C7.60259 5.7775 7.42724 5.595 7.20625 5.46C6.98526 5.325 6.74505 5.2575 6.48562 5.2575C6.2262 5.2575 5.98599 5.325 5.765 5.46C5.54401 5.595 5.36866 5.7775 5.23894 6.0075C5.10923 6.2375 5.04437 6.4875 5.04437 6.7575C5.04437 7.0275 5.10923 7.2775 5.23894 7.5075C5.36866 7.7375 5.54401 7.92 5.765 8.055C5.98599 8.19 6.2262 8.2575 6.48562 8.2575ZM6.48562 9.7575C5.96677 9.7575 5.48636 9.6225 5.04437 9.3525C4.60239 9.0825 4.25169 8.7175 3.99226 8.2575C3.73284 7.7975 3.60312 7.295 3.60312 6.75C3.60312 6.205 3.73284 5.705 3.99226 5.25C4.25169 4.795 4.60239 4.4325 5.04437 4.1625C5.48636 3.8925 5.96677 3.7575 6.48562 3.7575C7.00447 3.7575 7.48489 3.8925 7.92687 4.1625C8.36886 4.4325 8.71956 4.795 8.97899 5.25C9.23841 5.705 9.36812 6.205 9.36812 6.75C9.36812 7.295 9.23841 7.7975 8.97899 8.2575C8.71956 8.7175 8.36886 9.0825 7.92687 9.3525C7.48489 9.6225 7.00447 9.7575 6.48562 9.7575Z" fill="#50B4BE"/>
</svg>
