<svg width="15" height="15" viewBox="0 0 15 15" fill="none" xmlns="http://www.w3.org/2000/svg">
<path d="M5.04437 3.35276e-07V1.5H9.36812V3.35276e-07H10.8094V1.5H13.6919C13.8936 1.5 14.0642 1.5725 14.2035 1.7175C14.3428 1.8625 14.4125 2.04 14.4125 2.25V14.25C14.4125 14.46 14.3428 14.6375 14.2035 14.7825C14.0642 14.9275 13.8936 15 13.6919 15H0.720625C0.51885 15 0.348302 14.9275 0.208981 14.7825C0.0696604 14.6375 0 14.46 0 14.25V2.25C0 2.04 0.0696604 1.8625 0.208981 1.7175C0.348302 1.5725 0.51885 1.5 0.720625 1.5H3.60312V3.35276e-07H5.04437ZM12.9712 7.5H1.44125V13.5H12.9712V7.5ZM3.60312 3H1.44125V6H12.9712V3H10.8094V4.5H9.36812V3H5.04437V4.5H3.60312V3Z" fill="#6B7280"/>
</svg>
