<svg width="343" height="157" viewBox="0 0 343 157" fill="none" xmlns="http://www.w3.org/2000/svg">
<path d="M131.5 40C131.5 17.9086 149.409 0 171.5 0C193.591 0 211.5 17.9086 211.5 40C211.5 62.0914 193.591 80 171.5 80C149.409 80 131.5 62.0914 131.5 40Z" fill="#50B4BE"/>
<path d="M158.877 31.25L167.281 27.5L174.485 31.25L182.049 27.875C182.209 27.8083 182.365 27.8083 182.517 27.875C182.669 27.9417 182.777 28.05 182.841 28.2C182.873 28.2833 182.889 28.3667 182.889 28.45V48.75L174.485 52.5L167.281 48.75L159.717 52.125C159.557 52.1917 159.401 52.1917 159.249 52.125C159.097 52.0583 158.989 51.95 158.925 51.8C158.893 51.7167 158.877 51.6333 158.877 51.55V31.25ZM175.685 49.25L180.488 47.1V31.3L175.685 33.425V49.25ZM173.284 49.075V33.425L168.482 30.925V46.575L173.284 49.075ZM166.08 46.575V30.75L161.278 32.9V48.7L166.08 46.575Z" fill="white"/>
<path d="M129.247 102.08C129.743 102.176 130.111 102.344 130.351 102.584C130.607 102.824 130.735 103.104 130.735 103.424C130.735 103.952 130.583 104.336 130.279 104.576C129.991 104.816 129.527 104.912 128.887 104.864C127.447 104.752 126.319 104.68 125.503 104.648C124.703 104.6 123.647 104.568 122.335 104.552C121.743 107.496 121.199 110.456 120.703 113.432C120.527 114.52 120.343 115.784 120.151 117.224C119.959 118.648 119.831 119.8 119.767 120.68C119.735 121.144 119.543 121.504 119.191 121.76C118.839 122 118.415 122.12 117.919 122.12C117.391 122.12 116.983 121.992 116.695 121.736C116.407 121.48 116.263 121.144 116.263 120.728C116.263 120.344 116.319 119.712 116.431 118.832C116.559 117.936 116.703 117 116.863 116.024C117.039 115.048 117.175 114.2 117.271 113.48C117.447 112.264 117.647 111.056 117.871 109.856C118.095 108.656 118.319 107.52 118.543 106.448C118.591 106.208 118.647 105.936 118.711 105.632C118.775 105.312 118.847 104.96 118.927 104.576C117.359 104.624 116.127 104.752 115.23 104.96C114.335 105.168 113.695 105.464 113.311 105.848C112.943 106.216 112.759 106.696 112.759 107.288C112.759 107.832 112.919 108.352 113.239 108.848C113.303 108.96 113.335 109.08 113.335 109.208C113.335 109.512 113.151 109.8 112.783 110.072C112.431 110.328 112.063 110.456 111.679 110.456C111.407 110.456 111.183 110.376 111.007 110.216C110.687 109.944 110.423 109.56 110.215 109.064C110.007 108.552 109.903 107.976 109.903 107.336C109.903 105.976 110.343 104.888 111.223 104.072C112.119 103.24 113.471 102.632 115.279 102.248C117.103 101.864 119.439 101.672 122.286 101.672C124.047 101.672 125.447 101.704 126.487 101.768C127.543 101.832 128.463 101.936 129.247 102.08ZM127.926 122.12C127.318 122.12 126.886 121.8 126.63 121.16C126.39 120.52 126.27 119.496 126.27 118.088C126.27 116.008 126.566 114.032 127.158 112.16C127.302 111.696 127.534 111.36 127.854 111.152C128.19 110.928 128.654 110.816 129.246 110.816C129.566 110.816 129.79 110.856 129.918 110.936C130.046 111.016 130.11 111.168 130.11 111.392C130.11 111.648 129.99 112.224 129.75 113.12C129.59 113.76 129.462 114.32 129.366 114.8C129.27 115.28 129.19 115.872 129.126 116.576C129.654 115.2 130.246 114.08 130.902 113.216C131.558 112.352 132.198 111.736 132.822 111.368C133.462 111 134.046 110.816 134.574 110.816C135.614 110.816 136.134 111.336 136.134 112.376C136.134 112.584 136.062 113.088 135.918 113.888C135.79 114.528 135.726 114.928 135.726 115.088C135.726 115.648 135.926 115.928 136.326 115.928C136.774 115.928 137.35 115.576 138.054 114.872C138.262 114.664 138.478 114.56 138.702 114.56C138.91 114.56 139.07 114.656 139.182 114.848C139.31 115.024 139.374 115.264 139.374 115.568C139.374 116.16 139.214 116.624 138.894 116.96C138.446 117.424 137.918 117.824 137.31 118.16C136.718 118.48 136.086 118.64 135.414 118.64C134.566 118.64 133.918 118.424 133.47 117.992C133.038 117.56 132.822 116.976 132.822 116.24C132.822 116 132.846 115.76 132.894 115.52C132.926 115.2 132.942 114.984 132.942 114.872C132.942 114.616 132.854 114.488 132.678 114.488C132.438 114.488 132.118 114.76 131.718 115.304C131.334 115.832 130.95 116.536 130.566 117.416C130.182 118.296 129.87 119.224 129.63 120.2C129.454 120.952 129.246 121.464 129.006 121.736C128.782 121.992 128.422 122.12 127.926 122.12ZM140.096 122.12C139.104 122.12 138.312 121.76 137.72 121.04C137.128 120.32 136.832 119.376 136.832 118.208C136.832 116.928 137.128 115.72 137.72 114.584C138.312 113.432 139.096 112.512 140.072 111.824C141.064 111.12 142.112 110.768 143.216 110.768C143.568 110.768 143.8 110.84 143.912 110.984C144.04 111.112 144.144 111.352 144.224 111.704C144.56 111.64 144.912 111.608 145.28 111.608C146.064 111.608 146.456 111.888 146.456 112.448C146.456 112.784 146.336 113.584 146.096 114.848C145.728 116.688 145.544 117.968 145.544 118.688C145.544 118.928 145.6 119.12 145.712 119.264C145.84 119.408 146 119.48 146.192 119.48C146.496 119.48 146.864 119.288 147.296 118.904C147.728 118.504 148.312 117.864 149.048 116.984C149.24 116.76 149.456 116.648 149.696 116.648C149.904 116.648 150.064 116.744 150.176 116.936C150.304 117.128 150.368 117.392 150.368 117.728C150.368 118.368 150.216 118.864 149.912 119.216C149.256 120.032 148.56 120.72 147.824 121.28C147.088 121.84 146.376 122.12 145.688 122.12C145.16 122.12 144.672 121.944 144.224 121.592C143.792 121.224 143.464 120.728 143.24 120.104C142.408 121.448 141.36 122.12 140.096 122.12ZM140.96 119.696C141.312 119.696 141.648 119.488 141.968 119.072C142.288 118.656 142.52 118.104 142.664 117.416L143.552 113C142.88 113.016 142.256 113.272 141.68 113.768C141.12 114.248 140.672 114.888 140.336 115.688C140 116.488 139.832 117.336 139.832 118.232C139.832 118.728 139.928 119.096 140.12 119.336C140.328 119.576 140.608 119.696 140.96 119.696ZM160.532 114.704C160.58 114.688 160.66 114.68 160.772 114.68C161.012 114.68 161.196 114.76 161.324 114.92C161.452 115.08 161.516 115.296 161.516 115.568C161.516 116.064 161.42 116.456 161.228 116.744C161.036 117.016 160.748 117.216 160.364 117.344C159.628 117.584 158.844 117.704 158.012 117.704C157.308 117.704 156.644 117.608 156.02 117.416C155.556 118.168 155.044 118.944 154.484 119.744C153.844 120.656 153.292 121.28 152.828 121.616C152.364 121.952 151.836 122.12 151.244 122.12C150.588 122.12 150.068 121.864 149.684 121.352C149.316 120.84 149.084 120.032 148.988 118.928C148.796 116.688 148.7 114.728 148.7 113.048V112.208C148.716 111.68 148.86 111.312 149.132 111.104C149.404 110.896 149.812 110.792 150.356 110.792C150.772 110.792 151.076 110.888 151.268 111.08C151.476 111.256 151.58 111.56 151.58 111.992C151.58 113.832 151.692 116.224 151.916 119.168C152.876 117.744 153.596 116.608 154.076 115.76C153.836 115.296 153.716 114.744 153.716 114.104C153.716 113.56 153.836 113.032 154.076 112.52C154.316 112.008 154.644 111.592 155.06 111.272C155.476 110.952 155.948 110.792 156.476 110.792C156.94 110.792 157.316 110.96 157.604 111.296C157.892 111.616 158.036 112.088 158.036 112.712C158.036 113.432 157.844 114.256 157.46 115.184C158.068 115.152 158.876 115.032 159.884 114.824L160.532 114.704ZM170.137 116.648C170.345 116.648 170.505 116.744 170.617 116.936C170.745 117.128 170.809 117.392 170.809 117.728C170.809 118.368 170.657 118.864 170.353 119.216C169.761 119.936 168.921 120.6 167.833 121.208C166.761 121.816 165.609 122.12 164.377 122.12C162.697 122.12 161.393 121.664 160.465 120.752C159.537 119.84 159.073 118.592 159.073 117.008C159.073 115.904 159.305 114.88 159.769 113.936C160.233 112.976 160.873 112.216 161.689 111.656C162.521 111.096 163.457 110.816 164.497 110.816C165.425 110.816 166.169 111.096 166.729 111.656C167.289 112.2 167.569 112.944 167.569 113.888C167.569 114.992 167.169 115.944 166.369 116.744C165.585 117.528 164.249 118.152 162.361 118.616C162.761 119.352 163.521 119.72 164.641 119.72C165.361 119.72 166.177 119.472 167.089 118.976C168.017 118.464 168.817 117.8 169.489 116.984C169.681 116.76 169.897 116.648 170.137 116.648ZM164.089 113.168C163.497 113.168 162.993 113.512 162.577 114.2C162.177 114.888 161.977 115.72 161.977 116.696V116.744C162.921 116.52 163.665 116.184 164.209 115.736C164.753 115.288 165.025 114.768 165.025 114.176C165.025 113.872 164.937 113.632 164.761 113.456C164.601 113.264 164.377 113.168 164.089 113.168ZM177.951 116.648C178.159 116.648 178.319 116.744 178.431 116.936C178.559 117.128 178.623 117.392 178.623 117.728C178.623 118.368 178.471 118.864 178.167 119.216C177.479 120.064 176.727 120.76 175.911 121.304C175.111 121.848 174.199 122.12 173.175 122.12C171.767 122.12 170.719 121.48 170.031 120.2C169.359 118.92 169.023 117.264 169.023 115.232C169.023 113.28 169.271 111.056 169.767 108.56C170.279 106.064 171.023 103.92 171.999 102.128C172.991 100.336 174.167 99.44 175.527 99.44C176.295 99.44 176.895 99.8 177.327 100.52C177.775 101.224 177.999 102.24 177.999 103.568C177.999 105.472 177.471 107.68 176.415 110.192C175.359 112.704 173.927 115.192 172.119 117.656C172.231 118.312 172.415 118.784 172.671 119.072C172.927 119.344 173.263 119.48 173.679 119.48C174.335 119.48 174.911 119.296 175.407 118.928C175.903 118.544 176.535 117.896 177.303 116.984C177.495 116.76 177.711 116.648 177.951 116.648ZM174.999 101.816C174.631 101.816 174.215 102.48 173.751 103.808C173.287 105.136 172.879 106.784 172.527 108.752C172.175 110.72 171.983 112.608 171.951 114.416C173.087 112.544 173.991 110.672 174.663 108.8C175.335 106.912 175.671 105.192 175.671 103.64C175.671 102.424 175.447 101.816 174.999 101.816ZM196.939 116.696C197.147 116.696 197.307 116.8 197.419 117.008C197.547 117.2 197.611 117.448 197.611 117.752C197.611 118.12 197.555 118.408 197.443 118.616C197.331 118.824 197.155 119.008 196.915 119.168C195.971 119.792 194.467 120.816 192.403 122.24C191.779 125.552 190.971 128.16 189.979 130.064C188.987 131.968 187.731 132.92 186.211 132.92C185.395 132.92 184.731 132.664 184.219 132.152C183.707 131.656 183.451 131 183.451 130.184C183.451 129.432 183.619 128.672 183.955 127.904C184.291 127.136 184.915 126.248 185.827 125.24C186.755 124.232 188.059 123.08 189.739 121.784L189.811 121.328C188.547 121.856 187.307 122.12 186.091 122.12C184.299 122.12 182.723 121.776 181.363 121.088C180.003 120.384 178.947 119.392 178.195 118.112C177.443 116.832 177.067 115.344 177.067 113.648C177.067 111.28 177.515 109.192 178.411 107.384C179.307 105.56 180.539 104.152 182.107 103.16C183.691 102.152 185.459 101.648 187.411 101.648C189.283 101.648 190.683 102.088 191.611 102.968C192.555 103.832 193.027 104.984 193.027 106.424C193.027 107.368 192.851 108.128 192.499 108.704C192.163 109.264 191.675 109.544 191.035 109.544C190.603 109.544 190.251 109.44 189.979 109.232C189.723 109.024 189.595 108.736 189.595 108.368C189.595 108.208 189.627 107.936 189.691 107.552C189.787 107.104 189.835 106.752 189.835 106.496C189.835 105.824 189.627 105.304 189.211 104.936C188.811 104.568 188.131 104.384 187.171 104.384C186.003 104.384 184.915 104.72 183.907 105.392C182.915 106.064 182.115 107.072 181.507 108.416C180.899 109.744 180.595 111.344 180.595 113.216C180.595 115.136 181.115 116.624 182.155 117.68C183.211 118.72 184.731 119.24 186.715 119.24C187.819 119.24 188.971 118.992 190.171 118.496L190.507 115.568H188.059C187.611 115.568 187.267 115.464 187.027 115.256C186.787 115.032 186.667 114.672 186.667 114.176C186.667 113.728 186.787 113.376 187.027 113.12C187.267 112.864 187.587 112.736 187.987 112.736H192.475C192.827 112.736 193.115 112.856 193.339 113.096C193.579 113.32 193.675 113.648 193.627 114.08C193.579 114.592 193.419 115.752 193.147 117.56L192.883 119.384C194.163 118.424 195.331 117.592 196.387 116.888C196.595 116.76 196.779 116.696 196.939 116.696ZM186.475 130.592C186.891 130.592 187.347 130.12 187.843 129.176C188.339 128.232 188.803 126.712 189.235 124.616C188.019 125.656 187.139 126.592 186.595 127.424C186.067 128.272 185.803 129.016 185.803 129.656C185.803 130.28 186.027 130.592 186.475 130.592ZM198.327 122.12C197.607 122.12 197.015 121.792 196.551 121.136C196.103 120.464 195.879 119.632 195.879 118.64C195.879 117.44 195.959 116.344 196.119 115.352C196.279 114.344 196.543 113.28 196.911 112.16C197.071 111.68 197.295 111.336 197.583 111.128C197.871 110.92 198.327 110.816 198.951 110.816C199.303 110.816 199.543 110.872 199.671 110.984C199.815 111.096 199.887 111.264 199.887 111.488C199.887 111.616 199.799 112.048 199.623 112.784C199.463 113.376 199.335 113.912 199.239 114.392C198.919 116.072 198.759 117.192 198.759 117.752C198.759 118.088 198.799 118.328 198.879 118.472C198.959 118.6 199.087 118.664 199.263 118.664C199.503 118.664 199.799 118.424 200.151 117.944C200.519 117.464 200.903 116.736 201.303 115.76C201.719 114.784 202.119 113.584 202.503 112.16C202.631 111.68 202.823 111.336 203.079 111.128C203.351 110.92 203.751 110.816 204.279 110.816C204.647 110.816 204.903 110.864 205.047 110.96C205.191 111.04 205.263 111.2 205.263 111.44C205.263 111.84 205.063 112.936 204.663 114.728C204.215 116.776 203.991 118.04 203.991 118.52C203.991 118.824 204.055 119.064 204.183 119.24C204.311 119.4 204.479 119.48 204.687 119.48C205.007 119.48 205.383 119.288 205.815 118.904C206.263 118.504 206.855 117.864 207.591 116.984C207.783 116.76 207.999 116.648 208.239 116.648C208.447 116.648 208.607 116.744 208.719 116.936C208.847 117.128 208.911 117.392 208.911 117.728C208.911 118.368 208.759 118.864 208.455 119.216C207.767 120.064 207.023 120.76 206.223 121.304C205.439 121.848 204.543 122.12 203.535 122.12C202.767 122.12 202.199 121.824 201.831 121.232C201.479 120.64 201.303 119.808 201.303 118.736C201.031 119.824 200.623 120.664 200.079 121.256C199.535 121.832 198.951 122.12 198.327 122.12ZM210.109 109.232C209.437 109.232 208.933 109.08 208.597 108.776C208.261 108.456 208.093 108.016 208.093 107.456C208.093 106.896 208.309 106.432 208.741 106.064C209.189 105.68 209.741 105.488 210.397 105.488C210.989 105.488 211.469 105.632 211.837 105.92C212.205 106.208 212.389 106.616 212.389 107.144C212.389 107.784 212.181 108.296 211.765 108.68C211.349 109.048 210.797 109.232 210.109 109.232ZM209.917 122.12C208.877 122.12 208.117 121.752 207.637 121.016C207.173 120.28 206.941 119.304 206.941 118.088C206.941 117.368 207.029 116.448 207.205 115.328C207.397 114.192 207.637 113.136 207.925 112.16C208.069 111.648 208.261 111.296 208.501 111.104C208.741 110.912 209.125 110.816 209.653 110.816C210.469 110.816 210.877 111.088 210.877 111.632C210.877 112.032 210.725 112.96 210.421 114.416C210.037 116.176 209.845 117.368 209.845 117.992C209.845 118.472 209.909 118.84 210.037 119.096C210.165 119.352 210.381 119.48 210.685 119.48C210.973 119.48 211.333 119.28 211.765 118.88C212.197 118.48 212.773 117.848 213.493 116.984C213.685 116.76 213.901 116.648 214.141 116.648C214.349 116.648 214.509 116.744 214.621 116.936C214.749 117.128 214.813 117.392 214.813 117.728C214.813 118.368 214.661 118.864 214.357 119.216C212.773 121.152 211.293 122.12 209.917 122.12ZM226.503 116.648C226.711 116.648 226.871 116.744 226.983 116.936C227.111 117.128 227.175 117.392 227.175 117.728C227.175 118.368 227.023 118.864 226.719 119.216C226.063 120.016 225.343 120.704 224.559 121.28C223.775 121.84 222.999 122.12 222.231 122.12C221.015 122.12 220.087 121.408 219.447 119.984C218.775 120.832 218.183 121.4 217.671 121.688C217.175 121.976 216.591 122.12 215.919 122.12C214.943 122.12 214.135 121.76 213.495 121.04C212.871 120.304 212.559 119.352 212.559 118.184C212.559 116.904 212.831 115.72 213.375 114.632C213.919 113.528 214.663 112.632 215.607 111.944C216.567 111.24 217.639 110.824 218.823 110.696C219.127 107.592 219.703 104.944 220.551 102.752C221.415 100.544 222.543 99.44 223.935 99.44C224.623 99.44 225.191 99.752 225.639 100.376C226.103 101 226.335 101.944 226.335 103.208C226.335 105 225.895 107.096 225.015 109.496C224.135 111.896 222.959 114.36 221.487 116.888C221.551 117.816 221.687 118.48 221.895 118.88C222.119 119.28 222.399 119.48 222.735 119.48C223.167 119.48 223.607 119.288 224.055 118.904C224.503 118.52 225.103 117.88 225.855 116.984C226.047 116.76 226.263 116.648 226.503 116.648ZM223.671 101.792C223.367 101.792 223.063 102.336 222.759 103.424C222.455 104.496 222.191 105.904 221.967 107.648C221.759 109.392 221.607 111.216 221.511 113.12C223.303 109.216 224.199 106.08 224.199 103.712C224.199 103.104 224.143 102.632 224.031 102.296C223.935 101.96 223.815 101.792 223.671 101.792ZM216.759 119.696C217.063 119.696 217.367 119.576 217.671 119.336C217.975 119.08 218.359 118.616 218.823 117.944C218.663 117.08 218.583 116.112 218.583 115.04C218.583 114.656 218.599 114.032 218.631 113.168C217.751 113.44 217.015 114.032 216.423 114.944C215.847 115.84 215.559 116.84 215.559 117.944C215.559 119.112 215.959 119.696 216.759 119.696ZM233.814 117.368C234.022 117.368 234.182 117.464 234.294 117.656C234.422 117.848 234.486 118.112 234.486 118.448C234.486 119.024 234.35 119.52 234.078 119.936C233.63 120.624 233.038 121.16 232.302 121.544C231.582 121.928 230.718 122.12 229.71 122.12C228.174 122.12 226.982 121.664 226.134 120.752C225.286 119.824 224.862 118.576 224.862 117.008C224.862 115.904 225.094 114.88 225.558 113.936C226.022 112.976 226.662 112.216 227.478 111.656C228.31 111.096 229.246 110.816 230.286 110.816C231.214 110.816 231.958 111.096 232.518 111.656C233.078 112.2 233.358 112.944 233.358 113.888C233.358 114.992 232.958 115.944 232.158 116.744C231.374 117.528 230.03 118.152 228.126 118.616C228.51 119.352 229.158 119.72 230.07 119.72C230.726 119.72 231.262 119.568 231.678 119.264C232.11 118.96 232.606 118.448 233.166 117.728C233.358 117.488 233.574 117.368 233.814 117.368ZM229.878 113.168C229.286 113.168 228.782 113.512 228.366 114.2C227.966 114.888 227.766 115.72 227.766 116.696V116.744C228.71 116.52 229.454 116.184 229.998 115.736C230.542 115.288 230.814 114.768 230.814 114.176C230.814 113.872 230.726 113.632 230.55 113.456C230.39 113.264 230.166 113.168 229.878 113.168Z" fill="#111827"/>
<path d="M93.6491 141.612H94.5591V144.034C94.5591 144.697 94.4891 145.345 94.3491 145.98C94.2091 146.605 94.0131 147.198 93.7611 147.758C93.5091 148.318 93.1964 148.822 92.8231 149.27C92.4591 149.709 92.0484 150.068 91.5911 150.348L90.8491 149.494C91.2877 149.233 91.6751 148.906 92.0111 148.514C92.3564 148.122 92.6504 147.683 92.8931 147.198C93.1451 146.703 93.3317 146.19 93.4531 145.658C93.5837 145.117 93.6491 144.575 93.6491 144.034V141.612ZM93.8451 141.612H94.7691V143.964C94.7691 144.487 94.8251 145.005 94.9371 145.518C95.0584 146.031 95.2311 146.517 95.4551 146.974C95.6884 147.431 95.9684 147.847 96.2951 148.22C96.6217 148.593 96.9951 148.892 97.4151 149.116L96.7151 150.026C96.2577 149.765 95.8471 149.424 95.4831 149.004C95.1284 148.575 94.8297 148.089 94.5871 147.548C94.3444 147.007 94.1577 146.433 94.0271 145.826C93.9057 145.219 93.8451 144.599 93.8451 143.964V141.612ZM100.635 140.422H101.755V153.092H100.635V140.422ZM98.6191 145.518H101.055V146.47H98.6191V145.518ZM97.8491 140.688H98.9551V152.448H97.8491V140.688ZM103.868 150.558H115.348V151.524H103.868V150.558ZM109.006 147.856H110.154V150.964H109.006V147.856ZM105.268 141.36H113.92V145.196H106.444V147.73H105.296V144.272H112.772V142.312H105.268V141.36ZM105.296 147.24H114.214V148.192H105.296V147.24ZM116.733 146.848H128.213V147.8H116.733V146.848ZM121.983 147.45H123.159V150.362H121.983V147.45ZM118.203 151.846H126.939V152.812H118.203V151.846ZM118.203 149.116H119.365V152.112H118.203V149.116ZM122.459 140.744C123.355 140.744 124.134 140.847 124.797 141.052C125.46 141.257 125.973 141.551 126.337 141.934C126.71 142.307 126.897 142.76 126.897 143.292C126.897 143.805 126.71 144.253 126.337 144.636C125.973 145.019 125.46 145.313 124.797 145.518C124.134 145.723 123.355 145.826 122.459 145.826C121.572 145.826 120.793 145.723 120.121 145.518C119.458 145.313 118.94 145.019 118.567 144.636C118.203 144.253 118.021 143.805 118.021 143.292C118.021 142.76 118.203 142.307 118.567 141.934C118.94 141.551 119.458 141.257 120.121 141.052C120.793 140.847 121.572 140.744 122.459 140.744ZM122.459 141.682C121.824 141.682 121.264 141.747 120.779 141.878C120.294 142.009 119.916 142.195 119.645 142.438C119.384 142.671 119.253 142.956 119.253 143.292C119.253 143.619 119.384 143.903 119.645 144.146C119.916 144.379 120.294 144.561 120.779 144.692C121.264 144.813 121.824 144.874 122.459 144.874C123.112 144.874 123.677 144.813 124.153 144.692C124.629 144.561 124.998 144.379 125.259 144.146C125.53 143.903 125.665 143.619 125.665 143.292C125.665 142.956 125.53 142.671 125.259 142.438C124.998 142.195 124.629 142.009 124.153 141.878C123.677 141.747 123.112 141.682 122.459 141.682ZM139.261 143.25H143.097V144.202H139.261V143.25ZM139.261 147.254H143.097V148.206H139.261V147.254ZM136.937 141.402C137.553 141.402 138.099 141.584 138.575 141.948C139.051 142.303 139.42 142.811 139.681 143.474C139.952 144.137 140.087 144.916 140.087 145.812C140.087 146.708 139.952 147.487 139.681 148.15C139.42 148.813 139.051 149.326 138.575 149.69C138.099 150.054 137.553 150.236 136.937 150.236C136.331 150.236 135.785 150.054 135.299 149.69C134.823 149.326 134.45 148.813 134.179 148.15C133.918 147.487 133.787 146.708 133.787 145.812C133.787 144.916 133.918 144.137 134.179 143.474C134.45 142.811 134.823 142.303 135.299 141.948C135.785 141.584 136.331 141.402 136.937 141.402ZM136.937 142.438C136.536 142.438 136.181 142.578 135.873 142.858C135.565 143.129 135.323 143.521 135.145 144.034C134.977 144.538 134.893 145.131 134.893 145.812C134.893 146.493 134.977 147.091 135.145 147.604C135.323 148.108 135.565 148.5 135.873 148.78C136.181 149.06 136.536 149.2 136.937 149.2C137.348 149.2 137.707 149.06 138.015 148.78C138.323 148.5 138.561 148.108 138.729 147.604C138.907 147.091 138.995 146.493 138.995 145.812C138.995 145.131 138.907 144.538 138.729 144.034C138.561 143.521 138.323 143.129 138.015 142.858C137.707 142.578 137.348 142.438 136.937 142.438ZM142.831 140.422H143.979V153.106H142.831V140.422ZM156.004 140.422H157.11V148.43H156.004V140.422ZM153.932 143.866H156.326V144.818H153.932V143.866ZM153.288 140.674H154.38V147.982H153.288V140.674ZM146.372 141.934H152.784V142.858H146.372V141.934ZM149.592 143.516C150.124 143.516 150.591 143.605 150.992 143.782C151.403 143.959 151.72 144.211 151.944 144.538C152.178 144.865 152.294 145.247 152.294 145.686C152.294 146.125 152.178 146.507 151.944 146.834C151.72 147.151 151.403 147.399 150.992 147.576C150.591 147.753 150.124 147.842 149.592 147.842C149.07 147.842 148.603 147.753 148.192 147.576C147.782 147.399 147.464 147.151 147.24 146.834C147.016 146.507 146.904 146.125 146.904 145.686C146.904 145.247 147.016 144.865 147.24 144.538C147.464 144.211 147.782 143.959 148.192 143.782C148.603 143.605 149.07 143.516 149.592 143.516ZM149.592 144.384C149.107 144.384 148.71 144.501 148.402 144.734C148.094 144.967 147.94 145.285 147.94 145.686C147.94 146.078 148.09 146.395 148.388 146.638C148.696 146.871 149.098 146.988 149.592 146.988C150.087 146.988 150.484 146.871 150.782 146.638C151.09 146.395 151.244 146.078 151.244 145.686C151.244 145.285 151.09 144.967 150.782 144.734C150.484 144.501 150.087 144.384 149.592 144.384ZM149.018 140.52H150.166V142.466H149.018V140.52ZM152.952 148.654C154.278 148.654 155.314 148.845 156.06 149.228C156.807 149.611 157.18 150.157 157.18 150.866C157.18 151.566 156.807 152.107 156.06 152.49C155.314 152.873 154.278 153.064 152.952 153.064C151.627 153.064 150.591 152.873 149.844 152.49C149.098 152.107 148.724 151.566 148.724 150.866C148.724 150.157 149.098 149.611 149.844 149.228C150.591 148.845 151.627 148.654 152.952 148.654ZM152.952 149.55C151.982 149.55 151.226 149.662 150.684 149.886C150.143 150.11 149.872 150.437 149.872 150.866C149.872 151.286 150.143 151.608 150.684 151.832C151.226 152.056 151.982 152.168 152.952 152.168C153.914 152.168 154.665 152.056 155.206 151.832C155.748 151.608 156.018 151.286 156.018 150.866C156.018 150.437 155.748 150.11 155.206 149.886C154.665 149.662 153.914 149.55 152.952 149.55ZM165.033 140.646C166.433 140.646 167.525 140.837 168.309 141.22C169.093 141.593 169.485 142.13 169.485 142.83C169.485 143.539 169.093 144.085 168.309 144.468C167.525 144.841 166.433 145.028 165.033 145.028C163.642 145.028 162.55 144.841 161.757 144.468C160.973 144.085 160.581 143.539 160.581 142.83C160.581 142.13 160.973 141.593 161.757 141.22C162.55 140.837 163.642 140.646 165.033 140.646ZM165.033 141.514C164.352 141.514 163.768 141.565 163.283 141.668C162.798 141.771 162.424 141.92 162.163 142.116C161.911 142.312 161.785 142.55 161.785 142.83C161.785 143.11 161.911 143.353 162.163 143.558C162.424 143.754 162.798 143.903 163.283 144.006C163.768 144.099 164.352 144.146 165.033 144.146C165.724 144.146 166.312 144.099 166.797 144.006C167.282 143.903 167.651 143.754 167.903 143.558C168.164 143.353 168.295 143.11 168.295 142.83C168.295 142.55 168.164 142.312 167.903 142.116C167.651 141.92 167.282 141.771 166.797 141.668C166.312 141.565 165.724 141.514 165.033 141.514ZM159.321 145.882H170.759V146.82H159.321V145.882ZM160.707 147.898H169.289V150.754H161.869V152.28H160.735V149.9H168.155V148.794H160.707V147.898ZM160.735 152.042H169.667V152.952H160.735V152.042ZM179.47 141.514H180.436V143.782C180.436 144.51 180.342 145.219 180.156 145.91C179.978 146.591 179.722 147.231 179.386 147.828C179.059 148.416 178.672 148.939 178.224 149.396C177.785 149.844 177.304 150.199 176.782 150.46L176.068 149.494C176.544 149.279 176.987 148.971 177.398 148.57C177.808 148.169 178.168 147.716 178.476 147.212C178.784 146.699 179.026 146.148 179.204 145.56C179.381 144.972 179.47 144.379 179.47 143.782V141.514ZM179.666 141.514H180.632V143.782C180.632 144.361 180.716 144.93 180.884 145.49C181.061 146.05 181.304 146.582 181.612 147.086C181.929 147.581 182.288 148.019 182.69 148.402C183.1 148.775 183.539 149.069 184.006 149.284L183.306 150.208C182.792 149.965 182.316 149.625 181.878 149.186C181.439 148.747 181.052 148.243 180.716 147.674C180.389 147.105 180.132 146.489 179.946 145.826C179.759 145.163 179.666 144.482 179.666 143.782V141.514ZM185.336 140.422H186.498V153.106H185.336V140.422ZM192.138 141.724H193.09V142.746C193.09 143.521 192.941 144.244 192.642 144.916C192.353 145.579 191.947 146.157 191.424 146.652C190.902 147.137 190.286 147.506 189.576 147.758L188.96 146.862C189.595 146.638 190.15 146.316 190.626 145.896C191.102 145.476 191.471 145 191.732 144.468C192.003 143.927 192.138 143.353 192.138 142.746V141.724ZM192.348 141.724H193.3V142.746C193.3 143.297 193.426 143.829 193.678 144.342C193.93 144.855 194.285 145.308 194.742 145.7C195.209 146.092 195.75 146.395 196.366 146.61L195.778 147.52C195.088 147.268 194.481 146.909 193.958 146.442C193.445 145.966 193.048 145.411 192.768 144.776C192.488 144.141 192.348 143.465 192.348 142.746V141.724ZM189.31 141.304H196.086V142.256H189.31V141.304ZM197.682 140.422H198.844V148.052H197.682V140.422ZM198.522 143.754H200.706V144.734H198.522V143.754ZM190.612 148.724H198.844V153.092H197.682V149.676H190.612V148.724ZM201.867 142.592H208.153V143.544H201.867V142.592ZM205.017 144.384C205.549 144.384 206.016 144.505 206.417 144.748C206.828 144.991 207.15 145.331 207.383 145.77C207.617 146.199 207.733 146.699 207.733 147.268C207.733 147.837 207.617 148.341 207.383 148.78C207.15 149.209 206.828 149.55 206.417 149.802C206.016 150.045 205.549 150.166 205.017 150.166C204.495 150.166 204.028 150.045 203.617 149.802C203.207 149.55 202.885 149.209 202.651 148.78C202.418 148.341 202.301 147.837 202.301 147.268C202.301 146.699 202.418 146.199 202.651 145.77C202.885 145.341 203.207 145.005 203.617 144.762C204.028 144.51 204.495 144.384 205.017 144.384ZM205.017 145.364C204.7 145.364 204.411 145.448 204.149 145.616C203.897 145.775 203.697 145.999 203.547 146.288C203.407 146.568 203.337 146.895 203.337 147.268C203.337 147.641 203.407 147.973 203.547 148.262C203.697 148.551 203.897 148.775 204.149 148.934C204.411 149.093 204.7 149.172 205.017 149.172C205.344 149.172 205.633 149.093 205.885 148.934C206.137 148.775 206.333 148.551 206.473 148.262C206.623 147.973 206.697 147.641 206.697 147.268C206.697 146.895 206.623 146.568 206.473 146.288C206.333 145.999 206.137 145.775 205.885 145.616C205.633 145.448 205.344 145.364 205.017 145.364ZM211.499 140.422H212.605V153.092H211.499V140.422ZM209.469 145.756H211.863V146.708H209.469V145.756ZM208.783 140.716H209.875V152.476H208.783V140.716ZM204.443 140.8H205.591V143.166H204.443V140.8ZM214.774 150.516H226.254V151.482H214.774V150.516ZM219.912 147.478H221.06V150.796H219.912V147.478ZM216.118 141.318H217.28V143.572H223.72V141.318H224.868V147.8H216.118V141.318ZM217.28 144.524V146.848H223.72V144.524H217.28ZM232.637 144.958H235.073V145.924H232.637V144.958ZM230.285 141.612H231.195V144.034C231.195 144.687 231.125 145.331 230.985 145.966C230.854 146.601 230.658 147.198 230.397 147.758C230.145 148.318 229.837 148.822 229.473 149.27C229.109 149.718 228.698 150.082 228.241 150.362L227.513 149.494C227.942 149.233 228.33 148.906 228.675 148.514C229.02 148.122 229.31 147.683 229.543 147.198C229.786 146.703 229.968 146.19 230.089 145.658C230.22 145.117 230.285 144.575 230.285 144.034V141.612ZM230.509 141.612H231.405V143.992C231.405 144.496 231.461 145.005 231.573 145.518C231.694 146.022 231.862 146.507 232.077 146.974C232.301 147.431 232.576 147.851 232.903 148.234C233.23 148.617 233.598 148.934 234.009 149.186L233.351 150.082C232.894 149.802 232.488 149.447 232.133 149.018C231.778 148.579 231.48 148.089 231.237 147.548C230.994 146.997 230.812 146.419 230.691 145.812C230.57 145.205 230.509 144.599 230.509 143.992V141.612ZM237.299 140.422H238.419V153.092H237.299V140.422ZM234.723 140.688H235.815V152.448H234.723V140.688ZM243.346 146.946H244.494V150.726H243.346V146.946ZM248.022 146.946H249.184V150.726H248.022V146.946ZM240.532 150.502H252.012V151.468H240.532V150.502ZM246.244 141.22C247.14 141.22 247.933 141.355 248.624 141.626C249.315 141.897 249.856 142.275 250.248 142.76C250.649 143.245 250.85 143.819 250.85 144.482C250.85 145.135 250.649 145.709 250.248 146.204C249.856 146.689 249.315 147.067 248.624 147.338C247.933 147.599 247.14 147.73 246.244 147.73C245.357 147.73 244.564 147.599 243.864 147.338C243.173 147.067 242.632 146.689 242.24 146.204C241.848 145.709 241.652 145.135 241.652 144.482C241.652 143.819 241.848 143.245 242.24 142.76C242.632 142.275 243.173 141.897 243.864 141.626C244.564 141.355 245.357 141.22 246.244 141.22ZM246.244 142.144C245.572 142.144 244.975 142.242 244.452 142.438C243.929 142.634 243.519 142.909 243.22 143.264C242.921 143.609 242.772 144.015 242.772 144.482C242.772 144.949 242.921 145.359 243.22 145.714C243.519 146.059 243.929 146.33 244.452 146.526C244.975 146.722 245.572 146.82 246.244 146.82C246.925 146.82 247.527 146.722 248.05 146.526C248.573 146.33 248.983 146.059 249.282 145.714C249.581 145.359 249.73 144.949 249.73 144.482C249.73 144.015 249.581 143.609 249.282 143.264C248.983 142.909 248.573 142.634 248.05 142.438C247.527 142.242 246.925 142.144 246.244 142.144Z" fill="#4B5563"/>
</svg>
