<svg width="40" height="40" viewBox="0 0 40 40" fill="none" xmlns="http://www.w3.org/2000/svg">
<path d="M0 20C0 8.95431 8.95431 0 20 0C31.0457 0 40 8.95431 40 20C40 31.0457 31.0457 40 20 40C8.95431 40 0 31.0457 0 20Z" fill="#F3F4F6"/>
<path d="M27.7584 18.56C27.8353 18.86 27.7992 19.1425 27.6503 19.4075C27.5014 19.6725 27.2828 19.845 26.9945 19.925L15.6951 23.075C15.5414 23.125 15.3877 23.115 15.2339 23.045C15.0802 22.975 14.9649 22.865 14.888 22.715L13 19.175L14.0377 18.89L15.8104 20.72L19.4856 19.7L16.2428 14.39L17.6264 14L22.642 18.815L26.4325 17.765C26.7207 17.675 26.9945 17.71 27.254 17.87C27.5134 18.03 27.6815 18.26 27.7584 18.56ZM14.816 25.22H26.346V26.72H14.816V25.22Z" fill="#4B5563"/>
</svg>
