<svg width="40" height="40" viewBox="0 0 40 40" fill="none" xmlns="http://www.w3.org/2000/svg">
<rect width="40" height="40" rx="20" fill="#F3F4F6"/>
<path d="M25.49 22.5833C25.8954 21.5833 26.0527 20.5416 25.962 19.4583C25.8714 18.375 25.554 17.3778 25.01 16.4666C24.4554 15.5333 23.714 14.7889 22.786 14.2333C21.7834 13.6222 20.706 13.3222 19.554 13.3333C18.434 13.3444 17.3887 13.6389 16.418 14.2166L15.618 12.7666C16.418 12.2889 17.274 11.9639 18.186 11.7916C19.098 11.6194 20.0074 11.6166 20.914 11.7833C21.8634 11.95 22.754 12.2833 23.586 12.7833C24.7594 13.4944 25.698 14.45 26.402 15.65C27.0847 16.8055 27.474 18.0666 27.57 19.4333C27.666 20.8222 27.4367 22.15 26.882 23.4166L27.954 24.0666L24.626 25.9166L24.482 21.9833L25.49 22.5833ZM13.682 17.4166C13.2767 18.4166 13.1194 19.4583 13.21 20.5416C13.3007 21.625 13.618 22.6222 14.162 23.5333C14.7167 24.4666 15.458 25.2111 16.386 25.7666C17.3887 26.3778 18.466 26.6778 19.618 26.6666C20.738 26.6555 21.7834 26.3611 22.754 25.7833L23.554 27.2333C22.754 27.7111 21.898 28.0361 20.986 28.2083C20.074 28.3805 19.1647 28.3833 18.258 28.2166C17.3087 28.05 16.418 27.7166 15.586 27.2166C14.4127 26.5055 13.474 25.55 12.77 24.35C12.0874 23.1944 11.698 21.9333 11.602 20.5666C11.506 19.1778 11.7354 17.85 12.29 16.5833L11.218 15.9333L14.546 14.0833L14.69 18.0166L13.682 17.4166ZM16.786 21.6666H21.186C21.2927 21.6666 21.386 21.625 21.466 21.5416C21.546 21.4583 21.586 21.3611 21.586 21.25C21.586 21.1389 21.546 21.0416 21.466 20.9583C21.386 20.875 21.2927 20.8333 21.186 20.8333H17.986C17.6234 20.8333 17.29 20.7389 16.986 20.55C16.682 20.3611 16.4394 20.1083 16.258 19.7916C16.0767 19.475 15.986 19.1278 15.986 18.75C15.986 18.3722 16.0767 18.025 16.258 17.7083C16.4394 17.3916 16.682 17.1389 16.986 16.95C17.29 16.7611 17.6234 16.6666 17.986 16.6666H18.786V15.8333H20.386V16.6666H22.386V18.3333H17.986C17.8794 18.3333 17.786 18.375 17.706 18.4583C17.626 18.5416 17.586 18.6389 17.586 18.75C17.586 18.8611 17.626 18.9583 17.706 19.0416C17.786 19.125 17.8794 19.1666 17.986 19.1666H21.186C21.5487 19.1666 21.882 19.2611 22.186 19.45C22.49 19.6389 22.7327 19.8916 22.914 20.2083C23.0954 20.525 23.186 20.8722 23.186 21.25C23.186 21.6278 23.0954 21.975 22.914 22.2916C22.7327 22.6083 22.49 22.8611 22.186 23.05C21.882 23.2389 21.5487 23.3333 21.186 23.3333H20.386V24.1666H18.786V23.3333H16.786V21.6666Z" fill="#4B5563"/>
</svg>
