<svg width="40" height="40" viewBox="0 0 40 40" fill="none" xmlns="http://www.w3.org/2000/svg">
<path d="M0 20C0 8.95431 8.95431 0 20 0C31.0457 0 40 8.95431 40 20C40 31.0457 31.0457 40 20 40C8.95431 40 0 31.0457 0 20Z" fill="#F3F4F6"/>
<path d="M27.5 20.125V28H26.1V25.375H14.9V28H13.5V14H14.9V22.75H20.5V16.625H24.7C25.204 16.625 25.6707 16.7825 26.1 17.0975C26.5293 17.4125 26.87 17.8383 27.122 18.375C27.374 18.9117 27.5 19.495 27.5 20.125ZM26.1 22.75V20.125C26.1 19.81 26.037 19.5183 25.911 19.25C25.785 18.9817 25.6147 18.7687 25.4 18.6112C25.1853 18.4537 24.952 18.375 24.7 18.375H21.9V22.75H26.1ZM17.7 20.125C17.896 20.125 18.0617 20.0404 18.197 19.8712C18.3323 19.7021 18.4 19.495 18.4 19.25C18.4 19.005 18.3323 18.7979 18.197 18.6287C18.0617 18.4596 17.896 18.375 17.7 18.375C17.504 18.375 17.3383 18.4596 17.203 18.6287C17.0677 18.7979 17 19.005 17 19.25C17 19.495 17.0677 19.7021 17.203 19.8712C17.3383 20.0404 17.504 20.125 17.7 20.125ZM17.7 21.875C17.3173 21.875 16.965 21.7583 16.643 21.525C16.321 21.2917 16.0667 20.9737 15.88 20.5712C15.6933 20.1687 15.6 19.7283 15.6 19.25C15.6 18.7717 15.6933 18.3312 15.88 17.9287C16.0667 17.5262 16.321 17.2083 16.643 16.975C16.965 16.7417 17.3173 16.625 17.7 16.625C18.0827 16.625 18.435 16.7417 18.757 16.975C19.079 17.2083 19.3333 17.5262 19.52 17.9287C19.7067 18.3312 19.8 18.7717 19.8 19.25C19.8 19.7283 19.7067 20.1687 19.52 20.5712C19.3333 20.9737 19.079 21.2917 18.757 21.525C18.435 21.7583 18.0827 21.875 17.7 21.875Z" fill="#4B5563"/>
</svg>
