<svg width="16" height="17" viewBox="0 0 16 17" fill="none" xmlns="http://www.w3.org/2000/svg">
<path d="M0.784 12.5086C0.442667 11.8975 0.181333 11.253 0 10.5753C0.394667 10.3641 0.712 10.0586 0.952 9.65859C1.192 9.25859 1.312 8.81971 1.312 8.34193C1.312 7.86415 1.192 7.42526 0.952 7.02526C0.712 6.62526 0.394667 6.31971 0 6.10859C0.373333 4.71971 1.04 3.51415 2 2.49193C2.37333 2.74748 2.78667 2.88359 3.24 2.90026C3.69333 2.91693 4.11733 2.80582 4.512 2.56693C4.90667 2.32804 5.21067 2.00026 5.424 1.58359C5.63733 1.16693 5.73333 0.730817 5.712 0.275261C7.04533 -0.0914053 8.37867 -0.0914053 9.712 0.275261C9.69067 0.730817 9.78667 1.16693 10 1.58359C10.2133 2.00026 10.5173 2.32804 10.912 2.56693C11.3067 2.80582 11.7307 2.91693 12.184 2.90026C12.6373 2.88359 13.0507 2.74748 13.424 2.49193C13.8933 3.00304 14.2987 3.56415 14.64 4.17526C14.9813 4.78637 15.2427 5.43082 15.424 6.10859C15.0293 6.31971 14.712 6.62526 14.472 7.02526C14.232 7.42526 14.112 7.86415 14.112 8.34193C14.112 8.81971 14.232 9.25859 14.472 9.65859C14.712 10.0586 15.0293 10.3641 15.424 10.5753C15.0507 11.9641 14.384 13.1697 13.424 14.1919C13.0507 13.9364 12.6373 13.8003 12.184 13.7836C11.7307 13.7669 11.3067 13.878 10.912 14.1169C10.5173 14.3558 10.2133 14.6836 10 15.1003C9.78667 15.5169 9.69067 15.953 9.712 16.4086C8.37867 16.7753 7.04533 16.7753 5.712 16.4086C5.73333 15.953 5.63733 15.5169 5.424 15.1003C5.21067 14.6836 4.90667 14.3558 4.512 14.1169C4.11733 13.878 3.69333 13.7669 3.24 13.7836C2.78667 13.8003 2.37333 13.9364 2 14.1919C1.53067 13.6808 1.12533 13.1197 0.784 12.5086ZM5.312 12.6753C5.73867 12.9308 6.10667 13.2586 6.416 13.6586C6.72533 14.0586 6.96 14.4975 7.12 14.9753C7.51467 15.0197 7.90933 15.0197 8.304 14.9753C8.464 14.4975 8.696 14.0586 9 13.6586C9.304 13.2586 9.672 12.928 10.104 12.6669C10.536 12.4058 10.9973 12.2364 11.488 12.1586C11.9787 12.0808 12.4587 12.0975 12.928 12.2086C13.1627 11.8641 13.3653 11.503 13.536 11.1253C13.2053 10.7475 12.952 10.3197 12.776 9.84193C12.6 9.36415 12.512 8.86415 12.512 8.34193C12.512 7.81971 12.6 7.31971 12.776 6.84193C12.952 6.36415 13.2053 5.93637 13.536 5.55859C13.4507 5.36971 13.3573 5.18637 13.256 5.00859C13.1547 4.83082 13.0453 4.65304 12.928 4.47526C12.4587 4.58637 11.9787 4.60304 11.488 4.52526C10.9973 4.44748 10.5387 4.27804 10.112 4.01693C9.68533 3.75582 9.31733 3.42526 9.008 3.02526C8.69867 2.62526 8.464 2.18637 8.304 1.70859C7.90933 1.66415 7.51467 1.66415 7.12 1.70859C6.96 2.18637 6.728 2.62526 6.424 3.02526C6.12 3.42526 5.74933 3.75582 5.312 4.01693C4.87467 4.27804 4.41333 4.44748 3.928 4.52526C3.44267 4.60304 2.96533 4.58637 2.496 4.47526C2.26133 4.81971 2.05867 5.18082 1.888 5.55859C2.21867 5.93637 2.472 6.36415 2.648 6.84193C2.824 7.31971 2.912 7.81971 2.912 8.34193C2.912 8.86415 2.824 9.36415 2.648 9.84193C2.472 10.3197 2.21867 10.7475 1.888 11.1253C1.97333 11.3141 2.06667 11.4975 2.168 11.6753C2.26933 11.853 2.37867 12.0308 2.496 12.2086C2.96533 12.0975 3.44533 12.0808 3.936 12.1586C4.42667 12.2364 4.88533 12.4086 5.312 12.6753ZM7.712 10.8419C7.27467 10.8419 6.872 10.7308 6.504 10.5086C6.136 10.2864 5.84533 9.98359 5.632 9.60026C5.41867 9.21693 5.312 8.79748 5.312 8.34193C5.312 7.88637 5.41867 7.46693 5.632 7.08359C5.84533 6.70026 6.136 6.39748 6.504 6.17526C6.872 5.95304 7.27467 5.84193 7.712 5.84193C8.14933 5.84193 8.552 5.95304 8.92 6.17526C9.288 6.39748 9.57867 6.70026 9.792 7.08359C10.0053 7.46693 10.112 7.88637 10.112 8.34193C10.112 8.79748 10.0053 9.21693 9.792 9.60026C9.57867 9.98359 9.288 10.2864 8.92 10.5086C8.552 10.7308 8.14933 10.8419 7.712 10.8419ZM7.712 9.17526C7.936 9.17526 8.12533 9.09471 8.28 8.93359C8.43467 8.77248 8.512 8.57526 8.512 8.34193C8.512 8.10859 8.43467 7.91137 8.28 7.75026C8.12533 7.58915 7.936 7.50859 7.712 7.50859C7.488 7.50859 7.29867 7.58915 7.144 7.75026C6.98933 7.91137 6.912 8.10859 6.912 8.34193C6.912 8.57526 6.98933 8.77248 7.144 8.93359C7.29867 9.09471 7.488 9.17526 7.712 9.17526Z" fill="#374151"/>
</svg>
