<svg width="8" height="13" viewBox="0 0 8 13" fill="none" xmlns="http://www.w3.org/2000/svg">
<path d="M1.68187 2.3335C1.68187 1.9135 1.78279 1.52461 1.98461 1.16683C2.18644 0.809052 2.45927 0.525163 2.80312 0.315163C3.14697 0.105163 3.52072 0.000162706 3.92437 0.000162706C4.32802 0.000162706 4.70177 0.105163 5.04562 0.315163C5.38947 0.525163 5.66231 0.809052 5.86414 1.16683C6.06596 1.52461 6.16687 1.9135 6.16687 2.3335V5.40183C6.68265 5.77516 7.09004 6.24961 7.38904 6.82516C7.69551 7.42405 7.84875 8.06572 7.84875 8.75016C7.84875 9.48905 7.66935 10.1774 7.31055 10.8152C6.9667 11.4296 6.49951 11.9157 5.90899 12.2735C5.29604 12.6468 4.6345 12.8335 3.92437 12.8335C3.21425 12.8335 2.55271 12.6468 1.93976 12.2735C1.34924 11.9157 0.88205 11.4296 0.5382 10.8152C0.1794 10.1774 0 9.48905 0 8.75016C0 8.06572 0.153237 7.42405 0.459712 6.82516C0.758712 6.24961 1.1661 5.77516 1.68187 5.40183V2.3335ZM2.32099 6.3585C1.94724 6.63072 1.65384 6.97683 1.44081 7.39683C1.22777 7.81683 1.12125 8.26794 1.12125 8.75016C1.12125 9.27905 1.24646 9.76711 1.49687 10.2143C1.74728 10.6616 2.08739 11.0154 2.51721 11.276C2.94702 11.5366 3.41607 11.6668 3.92437 11.6668C4.43267 11.6668 4.90173 11.5366 5.33154 11.276C5.76136 11.0154 6.10147 10.6616 6.35188 10.2143C6.60229 9.76711 6.7275 9.27905 6.7275 8.75016C6.7275 8.26794 6.62098 7.81683 6.40794 7.39683C6.19491 6.97683 5.90151 6.63072 5.52776 6.3585L5.04562 6.0085V2.3335C5.04562 2.1235 4.99517 1.92905 4.89426 1.75016C4.79334 1.57127 4.65692 1.42933 4.485 1.32433C4.31307 1.21933 4.1262 1.16683 3.92437 1.16683C3.72255 1.16683 3.53567 1.21933 3.36375 1.32433C3.19182 1.42933 3.05541 1.57127 2.95449 1.75016C2.85358 1.92905 2.80312 2.1235 2.80312 2.3335V6.0085L2.32099 6.3585ZM3.36375 6.48683V2.3335H4.485V6.48683C4.80642 6.57238 5.09421 6.726 5.34836 6.94766C5.60251 7.16933 5.80247 7.43572 5.94823 7.74683C6.09399 8.05794 6.16687 8.39238 6.16687 8.75016C6.16687 9.17016 6.06596 9.55905 5.86414 9.91683C5.66231 10.2746 5.38947 10.5585 5.04562 10.7685C4.70177 10.9785 4.32802 11.0835 3.92437 11.0835C3.52072 11.0835 3.14697 10.9785 2.80312 10.7685C2.45927 10.5585 2.18644 10.2746 1.98461 9.91683C1.78279 9.55905 1.68187 9.17016 1.68187 8.75016C1.68187 8.39238 1.75476 8.05794 1.90052 7.74683C2.04628 7.43572 2.24624 7.16933 2.50039 6.94766C2.75454 6.726 3.04232 6.57238 3.36375 6.48683ZM3.92437 9.91683C4.1262 9.91683 4.31307 9.86433 4.485 9.75933C4.65692 9.65433 4.79334 9.51238 4.89426 9.3335C4.99517 9.15461 5.04562 8.96016 5.04562 8.75016C5.04562 8.54016 4.99517 8.34572 4.89426 8.16683C4.79334 7.98794 4.65692 7.846 4.485 7.741C4.31307 7.636 4.1262 7.5835 3.92437 7.5835C3.72255 7.5835 3.53567 7.636 3.36375 7.741C3.19182 7.846 3.05541 7.98794 2.95449 8.16683C2.85358 8.34572 2.80312 8.54016 2.80312 8.75016C2.80312 8.96016 2.85358 9.15461 2.95449 9.3335C3.05541 9.51238 3.19182 9.65433 3.36375 9.75933C3.53567 9.86433 3.72255 9.91683 3.92437 9.91683Z" fill="#F97316"/>
</svg>
