<svg width="40" height="40" viewBox="0 0 40 40" fill="none" xmlns="http://www.w3.org/2000/svg">
<path d="M0 20C0 8.95431 8.95431 0 20 0C31.0457 0 40 8.95431 40 20C40 31.0457 31.0457 40 20 40C8.95431 40 0 31.0457 0 20Z" fill="#F3F4F6"/>
<path d="M18.429 14.75L16.9877 16.25H14.235V25.25H25.765V16.25H23.0122L21.5709 14.75H18.429ZM17.8381 13.25H22.1618L23.6031 14.75H26.4856C26.6874 14.75 26.8579 14.8225 26.9972 14.9675C27.1365 15.1125 27.2062 15.29 27.2062 15.5V26C27.2062 26.21 27.1365 26.3875 26.9972 26.5325C26.8579 26.6775 26.6874 26.75 26.4856 26.75H13.5143C13.3126 26.75 13.142 26.6775 13.0027 26.5325C12.8634 26.3875 12.7937 26.21 12.7937 26V15.5C12.7937 15.29 12.8634 15.1125 13.0027 14.9675C13.142 14.8225 13.3126 14.75 13.5143 14.75H16.3968L17.8381 13.25ZM20 24.5C19.2793 24.5 18.6164 24.315 18.011 23.945C17.4057 23.575 16.9253 23.075 16.5698 22.445C16.2143 21.815 16.0365 21.125 16.0365 20.375C16.0365 19.625 16.2143 18.935 16.5698 18.305C16.9253 17.675 17.4057 17.175 18.011 16.805C18.6164 16.435 19.2793 16.25 20 16.25C20.7206 16.25 21.3836 16.435 21.9889 16.805C22.5942 17.175 23.0746 17.675 23.4301 18.305C23.7856 18.935 23.9634 19.625 23.9634 20.375C23.9634 21.125 23.7856 21.815 23.4301 22.445C23.0746 23.075 22.5942 23.575 21.9889 23.945C21.3836 24.315 20.7206 24.5 20 24.5ZM20 23C20.4612 23 20.8839 22.8825 21.2683 22.6475C21.6526 22.4125 21.9576 22.095 22.1834 21.695C22.4092 21.295 22.5221 20.855 22.5221 20.375C22.5221 19.895 22.4092 19.455 22.1834 19.055C21.9576 18.655 21.6526 18.3375 21.2683 18.1025C20.8839 17.8675 20.4612 17.75 20 17.75C19.5388 17.75 19.116 17.8675 18.7317 18.1025C18.3473 18.3375 18.0423 18.655 17.8165 19.055C17.5907 19.455 17.4778 19.895 17.4778 20.375C17.4778 20.855 17.5907 21.295 17.8165 21.695C18.0423 22.095 18.3473 22.4125 18.7317 22.6475C19.116 22.8825 19.5388 23 20 23Z" fill="#4B5563"/>
</svg>
