<svg width="11" height="14" viewBox="0 0 11 14" fill="none" xmlns="http://www.w3.org/2000/svg">
<path d="M0.64 0H9.6C9.7792 0 9.93067 0.0644455 10.0544 0.193335C10.1781 0.322224 10.24 0.480001 10.24 0.666668V13.4267C10.24 13.5156 10.208 13.5933 10.144 13.66C10.08 13.7267 10.0053 13.76 9.92 13.76C9.86027 13.76 9.8048 13.7422 9.7536 13.7067L5.12 10.68L0.4864 13.7067C0.418133 13.76 0.3392 13.7756 0.2496 13.7533C0.16 13.7311 0.0938667 13.68 0.0512 13.6C0.0170667 13.5467 0 13.4889 0 13.4267V0.666668C0 0.480001 0.0618667 0.322224 0.1856 0.193335C0.309333 0.0644455 0.4608 0 0.64 0ZM8.96 1.33333H1.28V11.6267L5.12 9.10667L8.96 11.6267V1.33333Z" fill="white"/>
</svg>
