<svg width="9" height="11" viewBox="0 0 9 11" fill="none" xmlns="http://www.w3.org/2000/svg">
<path d="M7.04 5.77333L0.4992 10.32C0.4224 10.3733 0.341333 10.3911 0.256 10.3733C0.170667 10.3556 0.1024 10.3067 0.0512 10.2267C0.0170667 10.1733 0 10.1111 0 10.04V0.626667C0 0.528889 0.032 0.448889 0.096 0.386666C0.16 0.324445 0.234667 0.293333 0.32 0.293333C0.388267 0.293333 0.448 0.311111 0.4992 0.346666L7.04 4.89333V0.666667C7.04 0.48 7.10187 0.322223 7.2256 0.193334C7.34933 0.0644445 7.5008 0 7.68 0C7.8592 0 8.01067 0.0644445 8.1344 0.193334C8.25813 0.322223 8.32 0.48 8.32 0.666667V10C8.32 10.1867 8.25813 10.3444 8.1344 10.4733C8.01067 10.6022 7.8592 10.6667 7.68 10.6667C7.5008 10.6667 7.34933 10.6022 7.2256 10.4733C7.10187 10.3444 7.04 10.1867 7.04 10V5.77333ZM1.28 2.49333V8.17333L5.376 5.33333L1.28 2.49333Z" fill="#50B4BE"/>
</svg>
