<svg width="13" height="14" viewBox="0 0 13 14" fill="none" xmlns="http://www.w3.org/2000/svg">
<path d="M5.12 -9.53674e-07L9.792 1.52C9.92853 1.56444 10.0373 1.64444 10.1184 1.76C10.1995 1.87556 10.24 2.00889 10.24 2.16V3.33333H11.52C11.6992 3.33333 11.8507 3.39778 11.9744 3.52667C12.0981 3.65555 12.16 3.81333 12.16 4V9.33333C12.16 9.52 12.0981 9.67778 11.9744 9.80667C11.8507 9.93555 11.6992 10 11.52 10H9.4592C9.2032 10.3467 8.90453 10.6444 8.5632 10.8933L5.12 13.3333L1.6768 10.8933C1.15627 10.52 0.746667 10.04 0.448 9.45333C0.149333 8.86667 0 8.24444 0 7.58667V2.16C0 2.00889 0.0405333 1.87556 0.1216 1.76C0.202667 1.64444 0.311467 1.56444 0.448 1.52L5.12 -9.53674e-07ZM5.12 1.4L1.28 2.64V7.58667C1.28 7.99555 1.36747 8.38667 1.5424 8.76C1.71733 9.13333 1.96267 9.44444 2.2784 9.69333L2.3936 9.78667L5.12 11.72L7.5392 10H4.48C4.3008 10 4.14933 9.93555 4.0256 9.80667C3.90187 9.67778 3.84 9.52 3.84 9.33333V4C3.84 3.81333 3.90187 3.65555 4.0256 3.52667C4.14933 3.39778 4.3008 3.33333 4.48 3.33333H8.96V2.64L5.12 1.4ZM5.12 6.66667V8.66667H10.88V6.66667H5.12ZM5.12 5.33333H10.88V4.66667H5.12V5.33333Z" fill="white"/>
</svg>
